<svg width="20" height="20" viewBox="0 0 20 20" fill="none" xmlns="http://www.w3.org/2000/svg">
<path d="M18.0023 9.02301C18.2153 9.29098 18.3332 9.63912 18.3332 10.0001C18.3332 10.3611 18.2153 10.7092 18.0023 10.9772C16.6536 12.6251 13.5836 15.8334 9.99984 15.8334C6.4161 15.8334 3.34616 12.6251 1.99744 10.9772C1.78442 10.7092 1.6665 10.3611 1.6665 10.0001C1.6665 9.63912 1.78442 9.29098 1.99744 9.02301C3.34616 7.37509 6.4161 4.16675 9.99984 4.16675C13.5836 4.16675 16.6536 7.37509 18.0023 9.02301Z" stroke="#FFD11A" stroke-width="1.5" stroke-linecap="round" stroke-linejoin="round"/>
<path d="M10.0003 12.5925C11.4191 12.5925 12.5693 11.4318 12.5693 9.99997C12.5693 8.56814 11.4191 7.40741 10.0003 7.40741C8.58145 7.40741 7.43127 8.56814 7.43127 9.99997C7.43127 11.4318 8.58145 12.5925 10.0003 12.5925Z" stroke="#FFD11A" stroke-width="1.5" stroke-linecap="round" stroke-linejoin="round"/>
</svg>
