<svg width="18" height="17" viewBox="0 0 18 17" fill="none" xmlns="http://www.w3.org/2000/svg">
<path d="M7.76819 0.494399C8.15453 -0.164584 9.10719 -0.164585 9.49353 0.494398L11.6543 4.17996C11.7953 4.42044 12.0302 4.59116 12.3025 4.65094L16.4754 5.56703C17.2215 5.73083 17.5159 6.63686 17.0086 7.20793L14.1711 10.4018C13.986 10.6102 13.8962 10.8865 13.9235 11.1639L14.3417 15.4156C14.4165 16.1758 13.6458 16.7358 12.9459 16.4298L9.0315 14.7181C8.77608 14.6064 8.48564 14.6064 8.23022 14.7181L4.31582 16.4298C3.61592 16.7358 2.8452 16.1758 2.91999 15.4156L3.33822 11.1639C3.36551 10.8865 3.27576 10.6102 3.09061 10.4018L0.253146 7.20793C-0.254197 6.63686 0.0401889 5.73083 0.786306 5.56703L4.95919 4.65094C5.23147 4.59116 5.46645 4.42044 5.60744 4.17996L7.76819 0.494399Z" fill="#FFCE22"/>
</svg>
