<svg width="120" height="120" viewBox="0 0 120 120" fill="none" xmlns="http://www.w3.org/2000/svg">
<path d="M79.9995 120V100C91.0661 100 99.9994 91.0671 99.9994 80.0005H119.999C119.999 102.134 102.066 120 79.9995 120Z" fill="#FFD11A"/>
<path d="M79.9997 120V100C68.9331 100 59.9998 91.0671 59.9998 80.0005H40C40 102.134 57.9332 120 79.9997 120Z" fill="#FFD11A"/>
<path d="M0 79.9985H19.9998C19.9998 91.0651 28.9331 99.9984 39.9997 99.9984V119.998C17.9332 119.998 0 102.132 0 79.9985Z" fill="#FFD11A"/>
<path d="M0 79.9997H19.9998C19.9998 68.9331 28.9331 59.9998 39.9997 59.9998V40C17.9332 40 0 57.9332 0 79.9997Z" fill="#FFD11A"/>
<path d="M39.9997 0V19.9998C28.9331 19.9998 19.9998 28.9331 19.9998 39.9997H0C0 17.9332 17.9332 0 39.9997 0Z" fill="#FFD11A"/>
<path d="M39.9998 0V19.9998C51.0663 19.9998 59.9996 28.9331 59.9996 39.9997H79.9995C79.9995 17.9332 62.0663 0 39.9998 0Z" fill="#FFD11A"/>
<path d="M119.999 39.9997H99.9991C99.9991 28.9331 91.0659 19.9998 79.9993 19.9998V0C102.066 0 119.999 17.9332 119.999 39.9997Z" fill="#FFD11A"/>
<path d="M119.999 39.9995H99.9991C99.9991 51.0661 91.0659 59.9994 79.9993 59.9994V79.9992C102.066 79.9992 119.999 62.1327 119.999 39.9995Z" fill="#FFD11A"/>
</svg>
